<svg width="30" height="30" viewBox="0 0 30 30" fill="none" xmlns="http://www.w3.org/2000/svg">
<path fill-rule="evenodd" clip-rule="evenodd" d="M0 14.9999C0 6.71565 6.71565 0 14.9999 0C23.2805 0.00933832 29.9907 6.71949 30 14.9999C30 23.2841 23.2841 30 14.9999 30C6.71565 30 0 23.2841 0 14.9999ZM1.4999 14.9999C1.4999 22.4557 7.54401 28.4998 14.9999 28.4998C22.4521 28.4913 28.4913 22.4521 28.4998 14.9999C28.4998 7.54401 22.4557 1.4999 14.9999 1.4999C7.54401 1.4999 1.4999 7.54401 1.4999 14.9999Z" fill="#0071D8"/>
<path d="M13.0246 9.27354C12.722 9.00494 12.2626 9.03631 11.9981 9.34332C11.7339 9.6506 11.7648 10.1172 12.0671 10.3858L17.2596 14.9999L12.0668 19.6142C11.7643 19.8828 11.7337 20.3494 11.9979 20.6564C12.2623 20.9637 12.7218 20.9951 13.0243 20.7265L18.8424 15.556C19.0003 15.4159 19.0909 15.213 19.0909 14.9999C19.0909 14.7867 19.0003 14.5841 18.8424 14.4437L13.0246 9.27354Z" fill="#0071D8"/>
</svg>
