<svg width="65" height="52" viewBox="0 0 65 52" fill="none" xmlns="http://www.w3.org/2000/svg">
<path d="M7.84 41V20.76H0.96V15H21.6V20.76H14.72V41H7.84ZM21.6581 41V15H28.6981L34.4581 26.6L36.9381 32.44H37.0981C36.9381 31.0267 36.7515 29.4267 36.5381 27.64C36.3248 25.8267 36.2181 24.12 36.2181 22.52V15H42.7781V41H35.7381L29.9781 29.36L27.4981 23.56H27.3381C27.4981 25.0267 27.6848 26.6533 27.8981 28.44C28.1115 30.2 28.2181 31.88 28.2181 33.48V41H21.6581ZM49.6931 41V20.76H42.8131V15H63.4531V20.76H56.5731V41H49.6931Z" fill="black"/>
</svg>
